<svg width="59" height="34" viewBox="0 0 59 34" fill="none" xmlns="http://www.w3.org/2000/svg">
<rect width="59" height="34" rx="17" fill="#202020" fill-opacity="0.6"/>
<path d="M39 21.4V7.1C39 6.4125 38.5929 6 37.9143 6H24.0714C21.7643 6 20 7.7875 20 10.125V23.875C20 26.2125 21.7643 28 24.0714 28H37.9143C38.4571 28 39 27.5875 39 26.9V26.2125C39 25.9375 38.8643 25.6625 38.5929 25.3875C38.4571 24.7 38.4571 22.775 38.5929 22.225C38.8643 22.0875 39 21.8125 39 21.4ZM32.769 12.2657C32.7945 12.2137 32.8437 12.1875 32.8929 12.1875C32.9421 12.1875 32.9913 12.2137 33.0167 12.2657L33.4908 13.2389L34.5511 13.3949C34.6644 13.4117 34.7097 13.5526 34.6279 13.6338L33.8607 14.3914L34.0418 15.4609C34.057 15.5515 33.9862 15.625 33.9056 15.625C33.8844 15.625 33.8624 15.6198 33.8412 15.6087L32.8929 15.1038L31.9446 15.6087C31.9233 15.6198 31.9013 15.625 31.8801 15.625C31.7995 15.625 31.7287 15.5515 31.744 15.4609L31.925 14.3914L31.1578 13.6338C31.0756 13.5526 31.1209 13.4117 31.2346 13.3949L32.2944 13.2389L32.769 12.2657ZM30.3139 9.30043C30.8936 9.30043 31.47 9.40742 32.0264 9.61883C32.0685 9.61886 32.11 9.62824 32.1481 9.64632C32.1862 9.6644 32.2199 9.69073 32.2468 9.72345C32.2738 9.75617 32.2933 9.79448 32.304 9.83568C32.3148 9.87689 32.3164 9.91997 32.3089 9.9619C32.3014 10.0038 32.2849 10.0436 32.2606 10.0783C32.2363 10.1131 32.2047 10.142 32.1681 10.1631C32.1315 10.1841 32.0909 10.1968 32.0489 10.2001C32.007 10.2035 31.9649 10.1975 31.9255 10.1826C31.8971 10.1826 31.7944 10.1736 31.7503 10.1736C29.5318 10.1736 27.7272 12.0019 27.7272 14.2496C27.7272 16.4968 29.5318 18.3256 31.7503 18.3256C31.794 18.3256 31.8979 18.3166 31.9255 18.3166C32.0921 18.3166 32.2139 18.4515 32.2139 18.6079C32.2139 18.7359 32.1316 18.8446 32.0179 18.8837C31.4636 19.093 30.8902 19.1991 30.3134 19.1991C27.6199 19.1996 25.4286 16.9789 25.4286 14.25C25.4286 11.5206 27.6199 9.30043 30.3139 9.30043ZM36.15 25.25H24.0714C23.2571 25.25 22.7143 24.7 22.7143 23.875C22.7143 23.05 23.3929 22.5 24.0714 22.5H36.15V25.25Z" fill="white"/>
</svg>
