<svg width="59" height="34" viewBox="0 0 59 34" fill="none" xmlns="http://www.w3.org/2000/svg">
<rect width="59" height="34" rx="17" fill="#202020" fill-opacity="0.6"/>
<path d="M25.0729 6.16675V9.41675H24.2917C24.0209 9.41675 23.7604 9.42758 23.5104 9.47091V6.16675C23.5104 5.72258 23.8646 5.35425 24.2917 5.35425C24.7188 5.35425 25.0729 5.72258 25.0729 6.16675Z" fill="white"/>
<path d="M34.7083 9.41675H24.2916C24.0208 9.41675 23.7604 9.42758 23.5104 9.47091C20.8229 9.79591 19.0833 11.8651 19.0833 14.8334V22.4167C19.0833 25.6667 21.1666 27.8334 24.2916 27.8334H34.7083C37.8333 27.8334 39.9166 25.6667 39.9166 22.4167V14.8334C39.9166 11.5834 37.8333 9.41675 34.7083 9.41675ZM25.2083 21.3334C23.7708 21.3334 22.6041 20.1201 22.6041 18.6251C22.6041 17.1301 23.7708 15.9167 25.2083 15.9167C26.6458 15.9167 27.8125 17.1301 27.8125 18.6251C27.8125 20.1201 26.6458 21.3334 25.2083 21.3334ZM31.9791 21.6042H31.4583C31.0312 21.6042 30.6771 21.2359 30.6771 20.7917C30.6771 20.3476 31.0312 19.9792 31.4583 19.9792H31.9791C32.4062 19.9792 32.7604 20.3476 32.7604 20.7917C32.7604 21.2359 32.4062 21.6042 31.9791 21.6042ZM35.625 21.6042H35.1041C34.6771 21.6042 34.3229 21.2359 34.3229 20.7917C34.3229 20.3476 34.6771 19.9792 35.1041 19.9792H35.625C36.0521 19.9792 36.4062 20.3476 36.4062 20.7917C36.4062 21.2359 36.0521 21.6042 35.625 21.6042ZM35.625 17.2709H31.4583C31.0312 17.2709 30.6771 16.9026 30.6771 16.4584C30.6771 16.0142 31.0312 15.6459 31.4583 15.6459H35.625C36.0521 15.6459 36.4062 16.0142 36.4062 16.4584C36.4062 16.9026 36.0521 17.2709 35.625 17.2709Z" fill="white"/>
</svg>
