<svg width="59" height="34" viewBox="0 0 59 34" fill="none" xmlns="http://www.w3.org/2000/svg">
<rect width="59" height="34" rx="17" fill="#202020" fill-opacity="0.6"/>
<path d="M17.9304 16.6379C17.7064 16.5088 17.4198 16.5854 17.2906 16.8094C16.9428 17.4118 16.6601 18.0042 16.4502 18.5702C16.3602 18.8128 16.4839 19.0823 16.7265 19.1722C16.7803 19.1922 16.8352 19.2016 16.8893 19.2016C17.0796 19.2016 17.2586 19.0848 17.3286 18.8959C17.5202 18.3791 17.7804 17.8347 18.1018 17.2778C18.2312 17.0538 18.1544 16.7673 17.9304 16.6379Z" fill="white"/>
<path d="M32.4397 13.0778C32.2427 12.91 31.9472 12.934 31.7794 13.131C31.3963 13.5814 31.0324 14.1066 30.6671 14.7367C30.5374 14.9605 30.6137 15.2471 30.8375 15.3769C30.9115 15.4197 30.9922 15.4401 31.072 15.4401C31.2336 15.4401 31.3908 15.3564 31.4777 15.2065C31.8144 14.6256 32.1465 14.1452 32.493 13.7381C32.6606 13.5411 32.6367 13.2455 32.4397 13.0778Z" fill="white"/>
<path d="M33.1978 6.68153C33.1538 6.4265 32.9111 6.25542 32.6565 6.2997C32.0359 6.40685 31.406 6.54797 30.7844 6.71905C30.535 6.78766 30.3885 7.04548 30.4571 7.29496C30.5143 7.50276 30.7029 7.63921 30.9085 7.63921C30.9495 7.63921 30.9914 7.63378 31.033 7.6223C31.6253 7.45929 32.2252 7.32493 32.8159 7.22286C33.0708 7.17878 33.2418 6.93645 33.1978 6.68153Z" fill="white"/>
<path d="M30.4154 16.2124C30.1802 16.1049 29.9021 16.2085 29.7946 16.4439C29.5531 16.9726 29.3058 17.5619 29.0595 18.1952C28.9657 18.4364 29.0851 18.7079 29.3262 18.8016C29.382 18.8233 29.4395 18.8336 29.4959 18.8336C29.6835 18.8336 29.8605 18.7202 29.9325 18.5349C30.1725 17.9182 30.4127 17.3457 30.6468 16.8332C30.7543 16.5978 30.6506 16.3198 30.4154 16.2124Z" fill="white"/>
<path d="M27.7953 23.2265C27.5596 23.1209 27.2821 23.2266 27.1763 23.4628C26.913 24.0512 26.6234 24.578 26.3156 25.0285C26.1696 25.2421 26.2244 25.5336 26.438 25.6796C26.5189 25.7348 26.6108 25.7612 26.7019 25.7612C26.8515 25.7612 26.9984 25.6899 27.0891 25.5571C27.4283 25.0606 27.7454 24.4847 28.0316 23.8455C28.1372 23.6093 28.0315 23.3322 27.7953 23.2265Z" fill="white"/>
<path d="M26.1504 9.12096C26.021 8.89687 25.7345 8.82024 25.5105 8.94958C24.9646 9.26488 24.421 9.6075 23.8947 9.96789C23.6811 10.114 23.6266 10.4056 23.7727 10.619C23.8635 10.7516 24.0104 10.8228 24.1597 10.8228C24.2509 10.8228 24.3431 10.7962 24.4239 10.7408C24.9306 10.3939 25.4538 10.0642 25.9791 9.76081C26.2032 9.63147 26.2797 9.34496 26.1504 9.12096Z" fill="white"/>
<path d="M29.0052 19.6808C28.7608 19.5959 28.4939 19.7255 28.4092 19.9699C28.2159 20.5272 28.0161 21.1291 27.8154 21.7587C27.7367 22.0052 27.8728 22.2687 28.1193 22.3473C28.1666 22.3623 28.2146 22.3696 28.2617 22.3696C28.4601 22.3696 28.6444 22.2425 28.7079 22.0434C28.9064 21.4212 29.1036 20.8268 29.2943 20.2769C29.379 20.0324 29.2496 19.7655 29.0052 19.6808Z" fill="white"/>
<path d="M41.622 8.75468C41.5168 8.51819 41.2454 8.41206 41.0094 8.51708C40.773 8.62229 40.6581 8.89915 40.7633 9.13549C40.9679 9.59552 41.0632 10.1398 41.0632 10.7533V10.771C41.0632 11.0297 41.2729 11.2394 41.5316 11.2394C41.7903 11.2394 42 11.0297 42 10.771V10.7533C42 10.0078 41.8804 9.33531 41.622 8.75468Z" fill="white"/>
<path d="M41.4195 12.1699C41.1681 12.1093 40.915 12.2638 40.8542 12.5152C40.7234 13.0561 40.5364 13.6351 40.2983 14.2359C40.2031 14.4764 40.3207 14.7487 40.5612 14.844C40.6178 14.8664 40.6763 14.8771 40.7337 14.8771C40.9201 14.8771 41.0965 14.7649 41.1693 14.5811C41.4234 13.9397 41.6237 13.3187 41.7647 12.7353C41.8256 12.4838 41.671 12.2307 41.4195 12.1699Z" fill="white"/>
<path d="M35.7737 11.5894C35.7454 11.3322 35.5131 11.1476 35.2569 11.1751C34.5399 11.254 33.902 11.4623 33.3063 11.812C33.0832 11.943 33.0085 12.2301 33.1396 12.4531C33.2268 12.6017 33.3833 12.6845 33.544 12.6845C33.6244 12.6845 33.7061 12.6637 33.7807 12.62C34.2601 12.3385 34.7764 12.1705 35.3593 12.1063C35.6165 12.078 35.802 11.8466 35.7737 11.5894Z" fill="white"/>
<path d="M39.9391 17.1242C40.0697 16.8949 40.2163 16.6277 40.3705 16.3287C40.4891 16.0988 40.3988 15.8163 40.1689 15.6977C39.9394 15.5793 39.6565 15.6692 39.538 15.8993C39.2583 16.4416 39.0013 16.8803 38.832 17.1573C34.8064 20.0733 36.1934 22.9778 36.2562 23.1038C36.3714 23.3338 36.6492 23.4262 36.8802 23.3132C37.1112 23.2002 37.207 22.9202 37.096 22.6883C37.0511 22.5947 36.1094 20.5242 38.9977 18.2087C39.0041 18.2089 39.0106 18.2101 39.017 18.2101C39.1358 18.2101 39.2525 18.1642 39.341 18.0792C39.6654 18.9229 40.1109 20.6407 39.5038 22.7656C39.4327 23.0144 39.5768 23.2737 39.8255 23.3446C39.8685 23.357 39.9117 23.3628 39.9544 23.3628C40.1582 23.3628 40.3457 23.2287 40.4045 23.0229C41.2928 19.9144 40.2004 17.6102 39.9391 17.1242Z" fill="white"/>
<path d="M40.2925 7.14065C39.7833 6.78376 39.1577 6.50959 38.4328 6.32572C38.182 6.26224 37.9272 6.41402 37.8636 6.66463C37.8 6.91539 37.9517 7.17021 38.2025 7.23384C38.8168 7.38963 39.3391 7.61637 39.7548 7.90775C39.8367 7.96509 39.9304 7.99266 40.0232 7.99266C40.1709 7.99266 40.3161 7.92309 40.4072 7.79304C40.5557 7.58123 40.5043 7.28909 40.2925 7.14065Z" fill="white"/>
<path d="M17.2263 22.228C17.125 21.9457 17.0462 21.6662 16.9924 21.3973C16.9556 21.2127 16.9369 21.0126 16.9369 20.8033C16.937 20.7299 16.9393 20.6552 16.9436 20.5796C16.9586 20.3213 16.7614 20.0997 16.5032 20.0848C16.2431 20.0677 16.0234 20.267 16.0083 20.5252C16.0029 20.6183 16.0001 20.7113 16 20.8026C16 21.0742 16.0248 21.3361 16.0739 21.5811C16.1367 21.8949 16.2277 22.2191 16.3446 22.5446C16.4132 22.7357 16.5933 22.8548 16.7855 22.8548C16.838 22.8548 16.8915 22.8459 16.9438 22.8271C17.1872 22.7398 17.3137 22.4715 17.2263 22.228Z" fill="white"/>
<path d="M29.5658 7.58509C29.475 7.34296 29.2049 7.22033 28.9627 7.31127C28.3742 7.53227 27.7818 7.7842 27.2021 8.05994C26.9684 8.1711 26.8691 8.45055 26.9802 8.6842C27.0605 8.85289 27.2285 8.95151 27.4036 8.95151C27.4709 8.95151 27.5394 8.93688 27.6044 8.90601C28.1604 8.64154 28.7283 8.40008 29.292 8.18832C29.5342 8.09732 29.6569 7.82726 29.5658 7.58509Z" fill="white"/>
<path d="M20.238 13.6881C20.0461 13.5147 19.75 13.5294 19.5763 13.7213C19.1372 14.2069 18.7266 14.7048 18.356 15.2014C18.2013 15.4088 18.2439 15.7023 18.4513 15.857C18.5354 15.9198 18.6337 15.95 18.7311 15.95C18.8739 15.95 19.0148 15.885 19.1069 15.7618C19.4599 15.2887 19.8516 14.8136 20.2712 14.3498C20.4446 14.1579 20.4297 13.8617 20.238 13.6881Z" fill="white"/>
<path d="M39.1255 11.6648C38.4063 11.469 37.7914 11.333 37.2456 11.2488C36.9897 11.2088 36.7507 11.3847 36.7113 11.6404C36.6718 11.8961 36.8471 12.1353 37.1029 12.1747C37.6135 12.2534 38.1947 12.3823 38.8794 12.5686C38.9206 12.5799 38.962 12.5852 39.0027 12.5852C39.2089 12.5852 39.3977 12.4482 39.4544 12.2398C39.5224 11.9901 39.3752 11.7327 39.1255 11.6648Z" fill="white"/>
<path d="M25.8168 26.3839C25.6553 26.1821 25.3607 26.1493 25.1583 26.3109C24.698 26.6794 24.2019 26.9258 23.684 27.0433C23.4317 27.1005 23.2735 27.3515 23.3307 27.6037C23.3801 27.8211 23.5733 27.9686 23.7872 27.9686C23.8215 27.9686 23.8563 27.9649 23.8912 27.957C24.5486 27.8078 25.1718 27.5001 25.7439 27.0423C25.9458 26.8806 25.9784 26.5859 25.8168 26.3839Z" fill="white"/>
<path d="M36.491 6.05014C35.8873 6.0188 35.2162 6.02703 34.5641 6.07055C34.3058 6.08776 34.1106 6.311 34.1278 6.56912C34.1442 6.81663 34.3502 7.00635 34.5947 7.00635C34.6051 7.00635 34.6157 7.00599 34.6263 7.00533C35.2421 6.96415 35.8756 6.95633 36.4426 6.98573C36.7024 6.99959 36.9213 6.80048 36.9346 6.54221C36.948 6.28378 36.7494 6.06349 36.491 6.05014Z" fill="white"/>
<path d="M23.0193 11.1783C22.8575 10.9765 22.5627 10.9441 22.3609 11.106C21.8626 11.5057 21.377 11.9268 20.9174 12.3576C20.7287 12.5345 20.7192 12.831 20.8961 13.0197C20.9883 13.1181 21.113 13.1677 21.2379 13.1677C21.3527 13.1677 21.4678 13.1258 21.5583 13.041C22.0003 12.6266 22.4676 12.2214 22.9471 11.8368C23.1489 11.6749 23.1813 11.38 23.0193 11.1783Z" fill="white"/>
<path d="M22.0435 27.013C21.5246 26.8863 20.9977 26.6538 20.4771 26.3218C20.259 26.1826 19.9693 26.247 19.8303 26.465C19.6912 26.6831 19.7553 26.9726 19.9735 27.1118C20.5808 27.499 21.2025 27.772 21.8212 27.9231C21.8586 27.9322 21.896 27.9366 21.9327 27.9366C22.1436 27.9366 22.3352 27.7932 22.3874 27.5792C22.4488 27.3278 22.2947 27.0743 22.0435 27.013Z" fill="white"/>
<path d="M19.1177 25.2014C18.7067 24.7779 18.3354 24.309 18.0141 23.8078C17.8744 23.5899 17.5847 23.5266 17.367 23.6661C17.1491 23.8058 17.0858 24.0955 17.2253 24.3133C17.5804 24.8673 17.9909 25.3856 18.4455 25.854C18.5373 25.9486 18.6595 25.9961 18.7816 25.9961C18.8992 25.9961 19.0169 25.9521 19.1079 25.8638C19.2935 25.6835 19.2979 25.387 19.1177 25.2014Z" fill="white"/>
</svg>
