<svg width="59" height="34" viewBox="0 0 59 34" fill="none" xmlns="http://www.w3.org/2000/svg">
<rect width="59" height="34" rx="17" fill="#202020" fill-opacity="0.6"/>
<path fill-rule="evenodd" clip-rule="evenodd" d="M19 10.5C19 9.57174 19.3687 8.6815 20.0251 8.02513C20.6815 7.36875 21.5717 7 22.5 7H36.5C37.4283 7 38.3185 7.36875 38.9749 8.02513C39.6313 8.6815 40 9.57174 40 10.5V24.5C40 25.4283 39.6313 26.3185 38.9749 26.9749C38.3185 27.6313 37.4283 28 36.5 28H22.5C21.5717 28 20.6815 27.6313 20.0251 26.9749C19.3687 26.3185 19 25.4283 19 24.5V10.5ZM30.6667 12.8333C30.6667 12.5239 30.5437 12.2272 30.325 12.0084C30.1062 11.7896 29.8094 11.6667 29.5 11.6667C29.1906 11.6667 28.8938 11.7896 28.675 12.0084C28.4562 12.2272 28.3333 12.5239 28.3333 12.8333V22.1667C28.3333 22.4761 28.4562 22.7728 28.675 22.9916C28.8938 23.2104 29.1906 23.3333 29.5 23.3333C29.8094 23.3333 30.1062 23.2104 30.325 22.9916C30.5437 22.7728 30.6667 22.4761 30.6667 22.1667V12.8333ZM26 16.3333C26 16.0239 25.8771 15.7272 25.6583 15.5084C25.4395 15.2896 25.1428 15.1667 24.8333 15.1667C24.5239 15.1667 24.2272 15.2896 24.0084 15.5084C23.7896 15.7272 23.6667 16.0239 23.6667 16.3333V22.1667C23.6667 22.4761 23.7896 22.7728 24.0084 22.9916C24.2272 23.2104 24.5239 23.3333 24.8333 23.3333C25.1428 23.3333 25.4395 23.2104 25.6583 22.9916C25.8771 22.7728 26 22.4761 26 22.1667V16.3333ZM35.3333 19.8333C35.3333 19.5239 35.2104 19.2272 34.9916 19.0084C34.7728 18.7896 34.4761 18.6667 34.1667 18.6667C33.8572 18.6667 33.5605 18.7896 33.3417 19.0084C33.1229 19.2272 33 19.5239 33 19.8333V22.1667C33 22.4761 33.1229 22.7728 33.3417 22.9916C33.5605 23.2104 33.8572 23.3333 34.1667 23.3333C34.4761 23.3333 34.7728 23.2104 34.9916 22.9916C35.2104 22.7728 35.3333 22.4761 35.3333 22.1667V19.8333Z" fill="white"/>
</svg>
